<?xml version="1.0" encoding="UTF-8" standalone="no"?>
<svg
   xmlns:dc="http://purl.org/dc/elements/1.1/"
   xmlns:cc="http://creativecommons.org/ns#"
   xmlns:rdf="http://www.w3.org/1999/02/22-rdf-syntax-ns#"
   xmlns:svg="http://www.w3.org/2000/svg"
   xmlns="http://www.w3.org/2000/svg"
   xmlns:sodipodi="http://sodipodi.sourceforge.net/DTD/sodipodi-0.dtd"
   xmlns:inkscape="http://www.inkscape.org/namespaces/inkscape"
   version="1.1"
   x="0px"
   y="0px"
   viewBox="0 0 100 125"
   enable-background="new 0 0 100 100"
   xml:space="preserve"
   id="svg2"
   inkscape:version="0.48.5 r10040"
   width="100%"
   height="100%"
   sodipodi:docname="noun_7402_cc.svg"><metadata
     id="metadata14"><rdf:RDF><cc:Work
         rdf:about=""><dc:format>image/svg+xml</dc:format><dc:type
           rdf:resource="http://purl.org/dc/dcmitype/StillImage" /><dc:title></dc:title></cc:Work></rdf:RDF></metadata><defs
     id="defs12" /><sodipodi:namedview
     pagecolor="#ffffff"
     bordercolor="#666666"
     borderopacity="1"
     objecttolerance="10"
     gridtolerance="10"
     guidetolerance="10"
     inkscape:pageopacity="0"
     inkscape:pageshadow="2"
     inkscape:window-width="1920"
     inkscape:window-height="1017"
     id="namedview10"
     showgrid="false"
     inkscape:zoom="6.0475"
     inkscape:cx="30.983878"
     inkscape:cy="62.5"
     inkscape:window-x="-8"
     inkscape:window-y="-8"
     inkscape:window-maximized="1"
     inkscape:current-layer="svg2" /><path
     d="M83.651,42.32l-8.681-8.681l-0.054-0.053l11.494-11.494l4.196,4.196c0.696,0.707,3.006,0.461,4.658-1.19  c1.635-1.635,1.92-3.898,1.227-4.606l-16.98-16.98c-0.695-0.712-3.234-0.204-4.636,1.199c-1.746,1.745-1.945,3.888-1.251,4.595  l3.999,3.999L66.131,24.799l-7.98-7.98c-1.045-1.066-3.117-0.726-4.826,0.948c-1.709,1.674-2.381,4.013-1.337,5.077l6.006,6.004  L34.3,52.549c-7.393,7.394-3.193,12.35-3.193,12.35c-1.009-0.098-2.332,0.459-3.151,1.179l-4.814,4.814  c-1.779,1.778-0.888,4.034-0.888,4.034L5.458,91.722c0,0-1.519,1.318-0.091,2.749c1.282,1.283,2.646-0.191,2.646-0.191L24.81,77.483  c0,0,2.188,1.081,4.097-0.827l4.814-4.815c0.752-0.793,1.44-1.78,1.274-3.053c0,0,4.993,4.458,12.498-3.047L71.19,42.046l6.3,6.301  c1.048,1.061,3.129,0.719,4.84-0.954C84.036,45.72,84.693,43.384,83.651,42.32z M62.44,33.296l3.788,3.789l-1.82,1.818l-3.787-3.787  L62.44,33.296z M80.028,15.709l3.788,3.788L72.321,30.991l-3.788-3.789L80.028,15.709z M40.49,50.895l15.344-15.343l8.365,8.364  L48.854,59.26L40.49,50.895z"
     id="path4" /></svg>